<svg xmlns="http://www.w3.org/2000/svg"  viewBox="0 0 128 128" width="64px" height="64px"><path fill="#fff" d="M82.36,110.21l-21.71-19.3c-3.79-3.37-9.5-3.37-13.29,0l-21.71,19.3C19.19,115.94,9,111.36,9,102.73V14 C9,8.48,13.48,4,19,4h70c5.52,0,10,4.48,10,10v88.73C99,111.36,88.81,115.94,82.36,110.21z"/><path fill="#444b54" d="M19.05,115.76c-1.81,0-3.63-0.38-5.37-1.17C8.94,112.47,6,107.92,6,102.73V14C6,6.83,11.83,1,19,1h70 c1.66,0,3,1.34,3,3c0,1.66-1.34,3-3,3H19c-3.86,0-7,3.14-7,7v88.73c0,2.84,1.54,5.22,4.13,6.39c2.59,1.16,5.4,0.73,7.52-1.15 l21.71-19.3c4.92-4.38,12.35-4.38,17.27,0l21.71,19.3c2.12,1.88,4.93,2.32,7.52,1.15c2.59-1.16,4.13-3.55,4.13-6.39V24 c0-1.66,1.34-3,3-3s3,1.34,3,3v78.73c0,5.19-2.94,9.73-7.67,11.86c-4.73,2.12-10.08,1.31-13.96-2.14l-21.71-19.3 c-2.65-2.36-6.65-2.36-9.3,0l-21.71,19.3C25.19,114.63,22.15,115.76,19.05,115.76z"/><path fill="#71c2ff" d="M119,75.73c-1.66,0-3-1.34-3-3V14c0-3.86-3.14-7-7-7c-1.66,0-3-1.34-3-3c0-1.66,1.34-3,3-3 c7.17,0,13,5.83,13,13v58.73C122,74.39,120.66,75.73,119,75.73z"/></svg>